# xmcd
#
# Track frame offsets: 
#        150
#        24611
#        51572
#        78973
#        105682
#        127457
#        149570
#        174288
#
# Disc length: 2555 seconds
#
# Revision: 0
# Processed by: cddbd v1.5.2PL0 Copyright (c) Steve Scherf et al.
# Submitted via: ExactAudioCopy v1.0b3
#
DISCID=7409f908
DTITLE=The Originals - Down To Love Town
DYEAR=1977
DGENRE=Soul
TTITLE0=Hurry Up and Wait
TTITLE1=Down to Love Town
TTITLE2=You Are a Blessing to Me
TTITLE3=(Call on Your) Six Million Dollar Man
TTITLE4=Mother Nature's Best
TTITLE5=Sunrise
TTITLE6=Been Decided
TTITLE7=Down to Love Town (alternate version)
EXTD=
EXTT0=
EXTT1=
EXTT2=
EXTT3=
EXTT4=
EXTT5=
EXTT6=
EXTT7=
PLAYORDER=
